<?xml version="1.0" encoding="utf-8"?>
<!-- Generator: Adobe Illustrator 26.0.1, SVG Export Plug-In . SVG Version: 6.00 Build 0)  -->
<svg version="1.1" id="Layer_1" xmlns="http://www.w3.org/2000/svg" xmlns:xlink="http://www.w3.org/1999/xlink" x="0px" y="0px"
	 viewBox="0 0 888.23 882.03" style="enable-background:new 0 0 888.23 882.03;" xml:space="preserve">
<style type="text/css">
	.st0{fill:none;stroke:#ED1C24;stroke-miterlimit:10;}
	.st1{font-family:'CMUClassicalSerif-Italic';}
	.st2{font-size:48px;}
</style>
<line class="st0" x1="137.29" y1="137.77" x2="0" y2="137.77"/>
<line class="st0" x1="137.29" y1="137.77" x2="137.29" y2="0.48"/>
<rect x="137.29" y="137.42" class="st0" width="734.73" height="183.68"/>
<rect x="137.29" y="321.1" class="st0" width="734.73" height="183.68"/>
<rect x="137.29" y="504.79" class="st0" width="734.73" height="183.68"/>
<rect x="137.29" y="688.47" class="st0" width="734.73" height="183.68"/>
<rect x="-138.82" y="412.95" transform="matrix(-1.836970e-16 1 -1 -1.836970e-16 733.9173 275.6553)" class="st0" width="735.91" height="183.68"/>
<rect x="44.86" y="412.95" transform="matrix(-1.836970e-16 1 -1 -1.836970e-16 917.5987 91.9739)" class="st0" width="735.91" height="183.68"/>
<rect x="228.54" y="412.95" transform="matrix(-1.836970e-16 1 -1 -1.836970e-16 1101.2802 -91.7075)" class="st0" width="735.91" height="183.68"/>
<rect x="412.22" y="412.95" transform="matrix(-1.836970e-16 1 -1 -1.836970e-16 1284.9615 -275.3889)" class="st0" width="735.91" height="183.68"/>
<text transform="matrix(1 0 0 1 824.5284 122.9681)" class="st1 st2">Sx</text>
<text transform="matrix(1 0 0 1 61.4431 858.6229)" class="st1 st2">Sy</text>
</svg>
